<?xml version="1.0" standalone="no"?>
<!DOCTYPE svg PUBLIC "-//W3C//DTD SVG 20010904//EN"
 "http://www.w3.org/TR/2001/REC-SVG-20010904/DTD/svg10.dtd">
<svg version="1.0" xmlns="http://www.w3.org/2000/svg"
 width="493.000000pt" height="144.000000pt" viewBox="0 0 493.000000 144.000000"
 preserveAspectRatio="xMidYMid meet">
<metadata>
Created by potrace 1.16, written by Peter Selinger 2001-2019
</metadata>
<g transform="translate(0.000000,144.000000) scale(0.100000,-0.100000)"
fill="#000000" stroke="none">
<path d="M990 1435 c0 -2 101 -149 225 -325 124 -177 225 -324 225 -328 0 -4
-103 -153 -230 -332 -126 -179 -230 -328 -230 -332 0 -5 87 -8 193 -8 l194 0
139 210 c76 115 142 210 146 210 3 0 68 -94 144 -210 l137 -210 204 0 c112 0
203 2 203 5 0 4 -304 446 -450 655 l-18 25 229 318 c126 175 229 320 229 322
0 3 -88 5 -194 5 l-195 0 -132 -192 c-73 -106 -135 -196 -139 -201 -3 -4 -67
83 -140 193 l-135 200 -202 0 c-112 0 -203 -2 -203 -5z"/>
<path d="M2460 1310 l0 -130 315 0 314 0 -329 -407 -330 -408 0 -127 0 -128
565 0 565 0 0 135 0 135 -341 2 -342 3 321 395 321 395 1 133 0 132 -530 0
-530 0 0 -130z"/>
<path d="M3790 775 l0 -665 348 0 c253 1 368 5 426 15 149 26 276 111 331 222
25 48 30 73 33 149 4 105 -7 156 -47 211 -40 56 -90 91 -162 118 l-61 22 45
26 c94 55 140 141 141 258 0 157 -84 253 -256 294 -50 12 -141 15 -430 15
l-368 0 0 -665z m636 393 c37 -20 58 -65 56 -121 -4 -91 -53 -118 -224 -125
l-118 -4 0 137 0 137 128 -4 c94 -3 135 -8 158 -20z m53 -506 c63 -24 86 -60
86 -132 0 -72 -21 -105 -91 -140 -44 -22 -64 -25 -191 -28 l-143 -4 0 161 0
161 148 -1 c113 0 157 -4 191 -17z"/>
<path d="M320 954 c-40 -16 -93 -61 -115 -98 l-25 -41 0 68 c0 37 -2 67 -5 67
-3 0 -43 -19 -90 -42 -70 -35 -85 -47 -85 -65 0 -20 4 -22 24 -17 48 12 51
-10 51 -386 0 -370 -2 -384 -50 -396 -16 -4 -25 -13 -25 -25 0 -18 9 -19 135
-19 126 0 135 1 135 19 0 12 -9 21 -25 25 -51 13 -55 39 -55 362 l0 297 25 43
c32 54 74 84 117 84 41 0 64 -21 84 -77 16 -47 20 -626 4 -668 -6 -15 -23 -32
-40 -38 -18 -7 -30 -19 -30 -29 0 -16 12 -18 140 -18 132 0 140 1 140 19 0 13
-8 21 -22 23 -14 2 -30 16 -40 38 -16 31 -18 69 -18 329 l0 294 31 48 c35 54
67 79 104 79 38 0 62 -16 82 -53 16 -28 18 -69 21 -347 2 -195 -1 -326 -7
-342 -6 -17 -23 -31 -45 -39 -23 -8 -36 -19 -36 -31 0 -16 12 -18 130 -18 111
0 130 2 130 15 0 9 -12 26 -27 39 l-27 23 -7 354 c-6 344 -10 383 -42 445 -30
58 -63 79 -126 79 -72 0 -125 -32 -175 -107 l-35 -51 -11 29 c-25 68 -33 83
-55 104 -24 23 -102 36 -135 24z"/>
</g>
</svg>
