<?xml version="1.0" standalone="no"?>
<!DOCTYPE svg PUBLIC "-//W3C//DTD SVG 20010904//EN"
 "http://www.w3.org/TR/2001/REC-SVG-20010904/DTD/svg10.dtd">
<svg version="1.0" xmlns="http://www.w3.org/2000/svg"
 width="128.000000pt" height="128.000000pt" viewBox="0 0 128.000000 128.000000"
 preserveAspectRatio="xMidYMid meet">
<metadata>
Created by potrace 1.16, written by Peter Selinger 2001-2019
</metadata>
<g transform="translate(0.000000,128.000000) scale(0.100000,-0.100000)"
fill="#000000" stroke="none">
<path d="M505 1255 c-209 -45 -387 -201 -462 -405 -26 -69 -28 -87 -28 -210 1
-126 3 -140 32 -218 42 -112 110 -202 213 -282 116 -90 255 -134 400 -127 167
8 301 68 421 189 120 120 168 232 176 407 7 134 -5 195 -54 299 -124 262 -418
408 -698 347z m316 -61 c88 -28 194 -98 258 -171 99 -111 145 -234 145 -383 0
-167 -52 -290 -173 -411 -119 -119 -250 -173 -422 -172 -319 2 -579 264 -579
583 0 146 53 279 153 387 170 182 384 240 618 167z"/>
<path d="M496 1194 c-139 -34 -280 -141 -350 -266 -127 -228 -89 -505 94 -688
225 -225 563 -225 791 0 314 311 172 843 -256 955 -72 18 -200 18 -279 -1z
m63 -396 c42 -59 78 -108 81 -108 3 0 11 10 19 23 13 20 13 21 -2 8 -25 -20
-20 -4 13 42 51 72 62 83 67 70 3 -7 20 -13 39 -13 l35 0 -53 -75 c-29 -42
-59 -83 -65 -93 -11 -16 -4 -31 52 -110 36 -51 65 -95 65 -98 0 -3 -17 -4 -37
-2 -34 3 -42 9 -83 70 -25 37 -47 67 -50 67 -3 0 -41 -50 -85 -112 l-80 -112
-55 0 -55 0 -3 272 -2 272 27 3 c91 10 90 11 172 -104z m355 42 c8 -85 8 -337
-1 -422 l-6 -68 -190 0 -189 0 14 23 c15 21 22 22 172 25 l156 3 0 229 0 229
-151 3 c-139 3 -153 5 -165 23 -13 20 -11 20 170 20 l184 0 6 -65z"/>
<path d="M410 630 c0 -234 4 -255 36 -213 17 22 18 37 2 27 -7 -4 -8 -3 -4 5
4 6 11 9 16 6 12 -7 132 167 127 185 -7 29 -149 220 -163 220 -12 0 -14 -37
-14 -230z"/>
</g>
</svg>
