<?xml version="1.0" standalone="no"?>
<!DOCTYPE svg PUBLIC "-//W3C//DTD SVG 20010904//EN"
 "http://www.w3.org/TR/2001/REC-SVG-20010904/DTD/svg10.dtd">
<svg version="1.0" xmlns="http://www.w3.org/2000/svg"
 width="128.000000pt" height="128.000000pt" viewBox="0 0 128.000000 128.000000"
 preserveAspectRatio="xMidYMid meet">

<g transform="translate(0.000000,128.000000) scale(0.100000,-0.100000)"
fill="#000000" stroke="none">
<path d="M565 1259 c-250 -32 -460 -214 -526 -454 -99 -363 146 -731 518 -781
72 -10 84 -10 156 0 440 59 680 551 456 934 -46 78 -153 182 -231 226 -104 58
-261 90 -373 75z m256 -65 c88 -28 194 -98 258 -171 99 -111 145 -234 145
-383 0 -167 -52 -290 -173 -411 -119 -119 -250 -173 -422 -172 -319 2 -579
264 -579 583 0 146 53 279 153 387 170 182 384 240 618 167z"/>
<path d="M496 1194 c-139 -34 -280 -141 -350 -266 -127 -228 -89 -505 94 -688
225 -225 563 -225 791 0 314 311 172 843 -256 955 -72 18 -200 18 -279 -1z
m-22 -86 c-4 -6 -2 -8 4 -4 6 3 13 2 16 -3 3 -5 -3 -11 -14 -14 -16 -4 -20 0
-20 20 0 14 4 22 10 18 6 -4 7 -11 4 -17z m59 2 c-3 -12 -8 -19 -11 -16 -5 6
5 36 12 36 2 0 2 -9 -1 -20z m72 10 c3 -5 1 -10 -4 -10 -6 0 -11 5 -11 10 0 6
2 10 4 10 3 0 8 -4 11 -10z m45 0 c0 8 3 11 6 7 3 -3 3 -10 0 -16 -8 -12 -36
-3 -36 11 0 6 6 5 15 -2 12 -10 15 -10 15 0z m55 -19 c-6 -5 -25 10 -25 20 0
5 6 4 14 -3 8 -7 12 -15 11 -17z m43 18 c-5 -19 20 -21 25 -2 4 16 5 16 6 1 0
-9 -4 -20 -9 -23 -13 -8 -42 14 -34 26 7 13 14 11 12 -2z m65 -17 c-3 -12 -9
-22 -14 -22 -5 0 -3 11 3 25 13 30 20 28 11 -3z m-378 -30 c-5 -6 -35 11 -35
20 0 5 5 6 10 3 6 -3 10 0 11 7 0 7 4 4 8 -7 5 -11 7 -21 6 -23z m425 32 c0
-3 -7 -12 -15 -20 -16 -17 -18 -14 -9 10 6 15 24 23 24 10z m14 -29 c-4 -8
-11 -15 -16 -15 -6 0 -5 6 2 15 7 8 14 15 16 15 2 0 1 -7 -2 -15z m-484 -79
c0 -2 -8 -10 -17 -17 -16 -13 -17 -12 -4 4 13 16 21 21 21 13z m-80 -80 c0 -2
-8 -10 -17 -17 -16 -13 -17 -12 -4 4 13 16 21 21 21 13z m249 -118 c42 -59 78
-108 81 -108 3 0 11 10 19 23 13 20 13 21 -2 8 -25 -20 -20 -4 13 42 51 72 62
83 67 70 3 -7 20 -13 39 -13 l35 0 -53 -75 c-29 -42 -59 -83 -65 -93 -11 -16
-4 -31 52 -110 36 -51 65 -95 65 -98 0 -3 -17 -4 -37 -2 -34 3 -42 9 -83 70
-25 37 -47 67 -50 67 -3 0 -41 -50 -85 -112 l-80 -112 -55 0 -55 0 -3 272 -2
272 27 3 c91 10 90 11 172 -104z m355 42 c8 -85 8 -337 -1 -422 l-6 -68 -190
0 -189 0 14 23 c15 21 22 22 172 25 l156 3 0 229 0 229 -151 3 c-139 3 -153 5
-165 23 -13 20 -11 20 170 20 l184 0 6 -65z m-661 -16 c-80 -175 -41 -369 99
-500 35 -31 53 -52 42 -46 -32 17 -101 87 -128 131 -81 128 -87 319 -14 439
29 48 30 39 1 -24z m813 -108 l3 -41 -8 41 c-5 22 -17 58 -25 79 -23 54 -18
58 6 6 11 -25 22 -63 24 -85z m9 -108 c-7 -56 -34 -152 -41 -145 -2 2 2 21 9
43 8 21 17 65 21 97 4 31 10 57 13 57 3 0 2 -24 -2 -52z m-60 -187 c-8 -17
-19 -33 -25 -36 -5 -3 -1 10 11 29 25 43 36 48 14 7z m-35 -54 c0 -2 -17 -19
-37 -38 l-38 -34 34 38 c33 34 41 42 41 34z m-634 -139 c-9 -16 -12 -16 -14
-3 -2 8 -8 12 -14 9 -6 -4 -8 -3 -5 2 3 5 14 10 25 10 16 0 18 -3 8 -18z m615
-3 c11 6 11 5 2 -5 -15 -16 -43 -6 -43 17 0 15 1 15 13 -2 9 -11 19 -15 28
-10z m-579 -27 c-8 -8 -9 -4 -5 13 4 13 8 18 11 10 2 -7 -1 -18 -6 -23z m528
8 c14 -18 13 -19 -7 -14 -17 4 -20 2 -16 -11 3 -12 1 -11 -11 3 -20 25 -21 40
-1 32 8 -3 15 0 15 6 0 6 1 9 3 7 1 -2 9 -13 17 -23z m-455 -26 c-5 -9 -45
-21 -45 -13 0 2 5 13 11 24 8 16 13 18 25 9 7 -7 12 -16 9 -20z m390 11 c3 -5
0 -13 -6 -17 -8 -4 -7 -9 2 -15 10 -6 10 -9 2 -9 -15 0 -35 35 -26 44 9 9 21
7 28 -3z m-357 -30 c-7 -9 -13 -17 -14 -19 -1 -2 -1 8 0 21 0 15 6 23 14 20
10 -4 10 -9 0 -22z m308 -4 c1 -9 -2 -15 -7 -11 -5 3 -9 -1 -9 -8 0 -18 -20
12 -20 30 0 20 33 10 36 -11z m-239 -3 c3 -8 1 -20 -5 -26 -8 -8 -9 -4 -5 12
4 17 2 21 -8 18 -8 -3 -13 -11 -11 -17 1 -7 -2 -10 -8 -6 -8 5 -7 11 1 21 15
18 28 18 36 -2z m177 8 c2 -4 -4 -8 -14 -8 -10 0 -16 4 -14 8 3 4 9 8 14 8 5
0 11 -4 14 -8z m-126 -9 c-10 -2 -18 -12 -18 -20 0 -9 -3 -14 -6 -10 -12 11 5
37 23 36 17 -1 17 -2 1 -6z m39 -25 c-3 -7 -5 -2 -5 12 0 14 2 19 5 13 2 -7 2
-19 0 -25z"/>
<path d="M410 630 c0 -234 4 -255 36 -213 17 22 18 37 2 27 -7 -4 -8 -3 -4 5
4 6 11 9 16 6 12 -7 132 167 127 185 -7 29 -149 220 -163 220 -12 0 -14 -37
-14 -230z"/>
</g>
</svg>
